<svg width="280" height="93" viewBox="0 0 280 93" fill="none" xmlns="http://www.w3.org/2000/svg">
<path d="M137.165 9.59153L148.55 15.9121L163.974 8.42213L169.991 15.5498L189.85 8.70128L190.269 16.3622L213.8 10.4183L208.603 18.3179L234.903 13.5071L224.291 21.342L252.349 17.849L236.729 25.3181L265.466 23.2773L245.438 30.0934L273.75 29.5832L250.085 35.4845L276.884 36.5245L250.491 41.2841L274.747 43.8344L246.639 47.2694L267.42 51.2319L238.679 53.2104L255.187 58.4329L226.916 58.8788L238.515 65.1605L211.802 64.0567L218.048 71.1562L193.918 68.5451L194.57 76.1897L173.95 72.1716L168.984 80.0674L152.668 74.7969L142.273 82.6405L130.888 76.3199L115.464 83.8099L109.447 76.6822L89.5879 83.5307L89.1697 75.8698L65.6379 81.8137L70.8348 73.9141L44.5347 78.7249L55.1472 70.89L27.0895 74.383L42.7096 66.9139L13.9725 68.9547L34 62.1386L5.6879 62.6488L29.3532 56.7475L2.55404 55.7075L28.9476 50.9479L4.69136 48.3976L32.799 44.9626L12.0177 41.0001L40.7592 39.0216L24.2516 33.7991L52.5224 33.3532L40.9228 27.0715L67.6365 28.1753L61.3907 21.0758L85.5207 23.6869L84.8687 16.0423L105.488 20.0603L110.455 12.1645L126.77 17.4351L137.165 9.59153Z" fill="#2250F4"/>
<path d="M150.507 41.8895L150.516 41.8925C150.632 41.9419 150.737 42.0122 150.828 42.0998C150.834 42.1054 150.837 42.1076 150.841 42.1092L150.85 42.1086C150.856 42.1082 150.863 42.1066 150.869 42.1036L153.058 40.9857L150.737 38.9672L150.472 41.8282C150.471 41.8383 150.472 41.8484 150.476 41.8579C150.48 41.8673 150.485 41.8758 150.493 41.8827C150.494 41.8834 150.494 41.884 150.495 41.8846C150.496 41.8852 150.497 41.8858 150.498 41.8863C150.501 41.8877 150.504 41.8886 150.507 41.8895Z" fill="white"/>
<path d="M153.651 41.5001L151.339 42.6746L151.332 42.6781C151.311 42.6886 151.285 42.7012 151.287 42.724C151.288 42.7465 151.314 42.7549 151.337 42.7623L151.347 42.7655L157.055 44.7259C157.044 44.684 157.03 44.6434 157.014 44.603C156.907 44.3315 156.651 44.1086 156.14 43.664L153.651 41.5001Z" fill="white"/>
<path d="M156.328 46.3794C156.693 45.9586 156.909 45.7097 157.013 45.4771L151.065 43.4378C151.045 43.4308 151.021 43.4234 151.003 43.4337C150.998 43.4367 150.995 43.4411 150.992 43.4457L150.988 43.451C150.912 43.5659 150.814 43.6646 150.7 43.7413C150.585 43.8179 150.457 43.8711 150.321 43.8976C150.295 43.8994 150.292 43.9345 150.29 43.9647L150.289 43.978L149.925 47.9286C149.925 47.9301 149.925 47.9317 149.925 47.9334L149.925 47.9371C149.922 47.9571 149.92 47.9789 149.935 47.9917C150.052 48.0697 150.151 48.1709 150.227 48.289C150.303 48.4072 150.354 48.5397 150.377 48.6783C150.379 48.7053 150.411 48.7085 150.441 48.7111L150.459 48.7135L153.891 49.1814L156.328 46.3794Z" fill="white"/>
<path d="M149.332 54.4269L153.332 49.825L150.259 49.4149C150.253 49.4144 150.248 49.4148 150.242 49.4162C150.22 49.4207 150.204 49.4381 150.19 49.4558C150.088 49.5983 149.953 49.7143 149.796 49.7944L149.789 49.7979C149.775 49.8048 149.759 49.8123 149.754 49.8268C149.754 49.8298 149.753 49.833 149.753 49.8363C149.752 49.839 149.752 49.8417 149.752 49.8444L149.751 49.8504L149.332 54.4269Z" fill="white"/>
<path d="M148.034 55.9196L148.485 55.4009C148.583 54.3324 148.951 50.3743 148.994 49.9142C148.996 49.9048 148.998 49.8956 149.001 49.8866C149.008 49.8663 149.014 49.8473 148.996 49.8401C148.842 49.7887 148.702 49.7023 148.587 49.5878C148.472 49.4733 148.384 49.3336 148.332 49.1798C148.329 49.1704 148.327 49.1621 148.319 49.1549C148.305 49.1454 148.289 49.1397 148.272 49.1383L142.248 48.3289C142.234 48.3269 142.217 48.3257 142.204 48.3326C142.191 48.3411 142.184 48.355 142.177 48.3696L142.176 48.3706L142.175 48.3725L142.164 48.3943L142.162 48.3995C142.15 48.4243 142.138 48.4477 142.125 48.4711L142.119 48.4793C142.113 48.4869 142.108 48.4957 142.108 48.5053C142.107 48.518 142.116 48.5284 142.124 48.5387L142.126 48.5402L142.132 48.5481L148.034 55.9196Z" fill="white"/>
<path d="M146.78 57.1567C147.013 57.0646 147.21 56.8626 147.543 56.4838L141.61 49.0448C141.605 49.0381 141.599 49.0321 141.592 49.0268C141.579 49.0163 141.563 49.0216 141.547 49.0287C141.245 49.18 140.9 49.2218 140.57 49.147C140.552 49.1422 140.53 49.139 140.516 49.1508C140.505 49.1593 140.499 49.1693 140.494 49.1806L139.24 51.4594L144.999 56.4656C145.515 56.9144 145.773 57.1381 146.058 57.2072C146.298 57.265 146.55 57.2474 146.78 57.1567Z" fill="white"/>
<path d="M137.364 49.8283L138.685 50.9767L139.886 48.7918C139.893 48.7817 139.897 48.7712 139.889 48.7616L139.88 48.7525C139.85 48.7187 139.822 48.6838 139.795 48.6478C139.783 48.63 139.769 48.6105 139.749 48.6119C139.742 48.6125 139.736 48.6144 139.73 48.6175L137.364 49.8283Z" fill="white"/>
<path d="M135.108 47.8671L136.779 49.32L139.298 48.039L139.311 48.032C139.341 48.0186 139.375 48.0023 139.373 47.9724C139.371 47.9449 139.338 47.9418 139.309 47.939C139.302 47.9386 139.296 47.938 139.29 47.9373L134.472 47.2842C134.617 47.4407 134.823 47.6199 135.108 47.8671Z" fill="white"/>
<path d="M134.176 46.2C134.152 46.2983 134.141 46.3991 134.142 46.5001L139.577 47.2484L139.578 47.2483C139.588 47.2495 139.596 47.2507 139.603 47.2454C139.616 47.2348 139.625 47.2213 139.631 47.2062C139.684 47.0875 139.764 46.9761 139.845 46.8736C139.862 46.8543 139.843 46.8317 139.825 46.8112C138.807 45.5435 137.79 44.2739 136.776 43.0024L134.917 45.1413C134.468 45.6575 134.245 45.9149 134.176 46.2Z" fill="white"/>
<path d="M139.774 39.5539L137.274 42.4299L140.445 46.4262C140.453 46.4373 140.463 46.447 140.474 46.4549C140.484 46.4609 140.494 46.4586 140.505 46.4561L140.508 46.4556C140.614 46.4283 140.719 46.4029 140.817 46.396C140.927 46.3899 141.037 46.3972 141.146 46.4176C141.163 46.4206 141.183 46.4234 141.197 46.4134C141.208 46.4048 141.214 46.3941 141.221 46.3817L143.654 41.9633L143.662 41.9502C143.676 41.9269 143.692 41.8999 143.673 41.8832C143.524 41.7508 143.411 41.5834 143.343 41.3963C143.275 41.2091 143.254 41.008 143.283 40.811C143.285 40.7995 143.286 40.7855 143.281 40.7751C143.272 40.7577 143.255 40.7516 143.237 40.7457C143.087 40.6924 142.671 40.5498 142.175 40.3798L141.828 40.2608C140.981 39.9711 140.035 39.647 139.774 39.5539Z" fill="white"/>
<path d="M143.516 35.2498L140.279 38.9731L140.891 39.1832C141.79 39.4914 143.32 40.0163 143.571 40.1052C143.592 40.1128 143.616 40.1207 143.631 40.1028C143.782 39.9642 143.963 39.8643 144.161 39.8117C144.358 39.7591 144.566 39.7554 144.765 39.801C144.783 39.8057 144.805 39.8084 144.819 39.7972C144.828 39.7887 144.836 39.7784 144.841 39.7668L147.048 35.7607L146.241 35.0592C145.726 34.6111 145.468 34.3868 145.183 34.3183C144.943 34.2604 144.691 34.2781 144.461 34.3688C144.188 34.4762 143.964 34.7343 143.516 35.2498Z" fill="white"/>
<path d="M150.056 38.3749L147.611 36.2494L145.441 40.1922C145.429 40.2204 145.448 40.247 145.466 40.2726L145.468 40.2751C145.581 40.4345 145.657 40.6172 145.691 40.8098C145.693 40.8326 145.72 40.8415 145.743 40.8489L145.75 40.8515L149.335 42.0875C149.344 42.09 149.353 42.0908 149.361 42.0899C149.372 42.088 149.378 42.0809 149.384 42.0733C149.388 42.0693 149.392 42.0656 149.396 42.0623C149.49 41.9828 149.597 41.9198 149.712 41.8759L149.716 41.8747C149.726 41.8708 149.736 41.8671 149.741 41.8559C149.741 41.8541 149.742 41.8523 149.742 41.8504C149.743 41.8487 149.743 41.847 149.743 41.8453C149.744 41.8412 149.744 41.837 149.744 41.8328L149.743 41.8238L150.056 38.3749Z" fill="white"/>
<path d="M148.978 42.7194L145.617 41.565C145.598 41.5579 145.574 41.5536 145.558 41.5667C145.551 41.5741 145.545 41.5827 145.54 41.5921C145.336 41.9468 144.973 42.1713 144.566 42.1997C144.514 42.2033 144.462 42.1999 144.404 42.196L144.395 42.1954L144.368 42.1931C144.339 42.1951 144.323 42.2245 144.31 42.2507L144.305 42.2582L141.913 46.5997L141.906 46.6122C141.891 46.636 141.875 46.6626 141.894 46.6792C141.905 46.6887 141.916 46.6879 141.926 46.6872C141.936 46.6865 148.478 43.3396 148.98 43.0826L148.986 43.0797C149.007 43.0693 149.03 43.0579 149.028 43.0353L149.022 42.9437C149.018 42.8886 149.022 42.8336 149.029 42.785C149.031 42.7736 149.03 42.7618 149.026 42.7509C149.018 42.7343 149 42.7276 148.983 42.7211L148.978 42.7194Z" fill="white"/>
<path d="M149.394 43.6755L142.263 47.324C142.267 47.3241 142.297 47.4048 142.326 47.483C142.353 47.5565 142.38 47.6281 142.383 47.6284L148.329 48.4276C148.342 48.4297 148.358 48.4309 148.37 48.4241C148.383 48.4161 148.39 48.4029 148.397 48.3889L148.398 48.3879L148.401 48.3829C148.476 48.232 148.587 48.1017 148.724 48.0033C148.861 47.905 149.02 47.8415 149.187 47.8184C149.215 47.8165 149.217 47.7834 149.219 47.7536L149.219 47.7518L149.22 47.7361L149.58 43.8243C149.58 43.822 149.58 43.8201 149.58 43.8181C149.58 43.8154 149.58 43.8128 149.58 43.8094C149.577 43.7939 149.562 43.7853 149.546 43.7779L149.529 43.7689C149.495 43.7461 149.459 43.7215 149.416 43.6842C149.405 43.6747 149.394 43.6755 149.394 43.6755Z" fill="white"/>
<path d="M165.762 40.1567L165.596 38.8467L163.192 39.0148L163.988 50.3987L166.539 50.2203L165.973 42.119C166.411 41.1509 167.145 40.6309 168.174 40.5589C168.88 40.5095 169.402 40.6475 169.737 40.9729C170.073 41.2984 170.266 41.8223 170.317 42.5448L170.832 49.9201L173.383 49.7418L172.857 42.2191C172.625 39.5076 171.327 38.2345 168.961 38.3999C167.597 38.4953 166.53 39.0809 165.762 40.1567Z" fill="white"/>
<path fill-rule="evenodd" clip-rule="evenodd" d="M176.959 48.1648C178.035 49.1151 179.381 49.5338 180.997 49.4208C181.942 49.3547 182.781 49.1075 183.514 48.6791C184.247 48.2508 184.817 47.6805 185.224 46.9684L183.757 45.7494C183.089 46.7477 182.17 47.2877 181.002 47.3694C180.169 47.4276 179.459 47.2024 178.871 46.6937C178.283 46.185 177.918 45.4634 177.776 44.5289L185.197 44.0099L185.125 42.9789C184.998 41.1692 184.479 39.7994 183.566 38.8694C182.654 37.9393 181.424 37.5284 179.878 37.6365C178.905 37.7046 178.041 38.0152 177.285 38.5685C176.529 39.1218 175.964 39.8609 175.589 40.7858C175.214 41.7107 175.066 42.7413 175.146 43.8775L175.168 44.1932C175.287 45.8906 175.884 47.2145 176.959 48.1648ZM178.367 40.5439C178.763 40.0228 179.311 39.7378 180.011 39.6889C180.718 39.6395 181.286 39.82 181.715 40.2305C182.145 40.641 182.418 41.2721 182.533 42.124L182.547 42.3133L177.687 42.6532C177.744 41.7681 177.971 41.065 178.367 40.5439Z" fill="white"/>
<path d="M189.917 37.146L189.724 34.3789L187.173 34.5573L187.366 37.3244L185.498 37.455L185.63 39.3488L187.499 39.2182L187.95 45.6677C188.101 47.835 189.157 48.8502 191.116 48.7132C191.655 48.6755 192.209 48.5557 192.779 48.3538L192.64 46.3758C192.344 46.467 192.049 46.5228 191.756 46.5434C191.315 46.5742 191.002 46.4992 190.817 46.3183C190.632 46.1374 190.524 45.8295 190.494 45.3946L190.049 39.0398L192.054 38.8996L191.922 37.0058L189.917 37.146Z" fill="white"/>
<path d="M194.828 48.2422L197.378 48.0638L196.248 31.9033L193.698 32.0816L194.828 48.2422Z" fill="white"/>
<path d="M200.318 47.8583L202.868 47.6799L202.072 36.296L199.521 36.4744L200.318 47.8583Z" fill="white"/>
<path d="M199.462 32.5244C199.231 32.8013 199.13 33.1361 199.157 33.5289C199.184 33.9147 199.331 34.2269 199.597 34.4656C199.864 34.7042 200.228 34.8074 200.69 34.7751C201.151 34.7428 201.499 34.5898 201.733 34.3162C201.967 34.0426 202.071 33.7129 202.044 33.3271C202.016 32.9343 201.868 32.617 201.598 32.375C201.328 32.1331 200.962 32.0283 200.5 32.0606C200.038 32.0929 199.692 32.2475 199.462 32.5244Z" fill="white"/>
<path d="M205.879 37.9329L206.542 47.423L209.093 47.2447L208.429 37.7546L210.738 37.5931L210.606 35.6993L208.297 35.8608L208.226 34.8507C208.138 33.5952 208.703 32.9249 209.921 32.8397C210.292 32.8138 210.619 32.8191 210.903 32.8556L210.826 30.8522C210.313 30.7612 209.833 30.7313 209.385 30.7626C208.126 30.8507 207.17 31.2629 206.518 31.9992C205.867 32.7356 205.585 33.735 205.673 34.9975L205.746 36.0391L204.014 36.1602L204.147 38.054L205.879 37.9329Z" fill="white"/>
<path d="M221.47 34.9396L218.752 35.1297L216.982 43.0137L214.038 35.4593L211.288 35.6516L216.069 46.704L215.771 47.7081C215.62 48.2754 215.391 48.688 215.082 48.9457C214.773 49.2034 214.296 49.3548 213.653 49.3998L213.168 49.402L213.306 51.38C213.763 51.4749 214.176 51.5094 214.547 51.4835C216.206 51.3675 217.314 50.3279 217.873 48.3646L221.47 34.9396Z" fill="white"/>
<path d="M80.5951 56.3241L82.7695 56.172L81.84 42.8803L79.6656 43.0323L80.5951 56.3241Z" fill="white"/>
<path fill-rule="evenodd" clip-rule="evenodd" d="M67.003 52.4552C67.2207 55.5677 65.6071 57.566 62.7401 57.7665C59.8643 57.9676 57.9971 56.2127 57.7795 53.1002C57.5637 50.0139 59.1941 48.0057 62.0436 47.8064C64.9019 47.6065 66.7866 49.3602 67.003 52.4552ZM60.0071 52.9532C60.1487 54.9785 61.0988 56.0927 62.6156 55.9866C64.1324 55.8806 64.9095 54.6456 64.7679 52.6203C64.6263 50.595 63.6761 49.4808 62.1681 49.5863C60.6513 49.6923 59.8654 50.9279 60.0071 52.9532Z" fill="white"/>
<path d="M71.7047 56.9458L69.5303 57.0978L68.8602 47.5148L70.9557 47.3682L71.063 48.9026L71.212 48.8922C71.5931 47.7906 72.5122 47.0744 73.9413 46.9744C76.0806 46.8249 77.3369 48.0322 77.4963 50.3117L77.9297 56.5105L75.7553 56.6625L75.3574 50.9723C75.2532 49.4818 74.5874 48.7795 73.2635 48.8721C71.9658 48.9628 71.2136 49.9229 71.3142 51.3608L71.7047 56.9458Z" fill="white"/>
<path d="M90.5872 55.9602C89.9367 58.3757 88.9655 59.2277 86.8174 59.378C86.6859 59.3872 86.0979 59.4195 85.9557 59.403L85.835 57.6757C85.9589 57.6847 86.2839 57.6708 86.433 57.6604C87.3536 57.596 87.8464 57.2091 88.0638 56.2864L88.1465 55.8313L84.0458 46.4529L86.4306 46.2861L89.2011 53.6518L89.3502 53.6414L91.0599 45.9624L93.357 45.8018L90.5872 55.9602Z" fill="white"/>
<path fill-rule="evenodd" clip-rule="evenodd" d="M104.842 54.8224C107.709 54.6219 109.323 52.6236 109.105 49.5111C108.889 46.4161 107.004 44.6625 104.146 44.8623C101.296 45.0616 99.6659 47.0699 99.8817 50.1561C100.099 53.2686 101.967 55.0235 104.842 54.8224ZM104.718 53.0426C103.201 53.1486 102.251 52.0345 102.109 50.0091C101.968 47.9838 102.754 46.7482 104.27 46.6422C105.778 46.5367 106.729 47.6509 106.87 49.6762C107.012 51.7015 106.235 52.9365 104.718 53.0426Z" fill="white"/>
<path d="M113.807 54.0017L111.633 54.1537L110.962 44.5707L113.058 44.4242L113.165 45.9585L113.314 45.9481C113.695 44.8466 114.614 44.1303 116.044 44.0304C118.183 43.8808 119.439 45.0881 119.599 47.3677L120.032 53.5664L117.858 53.7184L117.46 48.0282C117.355 46.5377 116.69 45.8354 115.366 45.928C114.068 46.0187 113.316 46.9788 113.416 48.4167L113.807 54.0017Z" fill="white"/>
</svg>
